<?xml version="1.0" encoding="UTF-8" standalone="no"?>
<svg width="400px" height="304px" viewBox="0 0 400 304" version="1.1" xmlns="http://www.w3.org/2000/svg" xmlns:xlink="http://www.w3.org/1999/xlink" xmlns:sketch="http://www.bohemiancoding.com/sketch/ns">
    <!-- Generator: Sketch 3.4.4 (17249) - http://www.bohemiancoding.com/sketch -->
    <title>Shape</title>
    <desc>Created with Sketch.</desc>
    <defs></defs>
    <g id="Page-1" stroke="none" stroke-width="1" fill="none" fill-rule="evenodd" sketch:type="MSPage">
        <g id="noun_50613_cc" sketch:type="MSLayerGroup" fill="#FFFFFF">
            <path d="M312,304 L88,304 C39.477,304 0,264.523 0,216 C0,194.974 7.537,174.623 21.223,158.694 C32.794,145.227 48.136,135.603 65.092,131.031 C64.366,127.415 64,123.728 64,120 C64,89.122 89.121,64 120,64 C125.178,64 130.246,64.697 135.148,66.079 C142.13,48.333 154.067,32.534 169.362,20.976 C187.521,7.253 209.181,0 232,0 C289.346,0 336,46.654 336,104 C336,112.994 334.859,121.856 332.603,130.453 C371.618,139.816 400,175.062 400,216 C400,264.523 360.523,304 312,304 L312,304 Z M120,80 C97.944,80 80,97.944 80,120 C80,124.878 80.876,129.657 82.604,134.203 L86.089,143.375 L76.403,144.943 C59.722,147.642 44.435,156.23 33.357,169.122 C22.165,182.149 16,198.798 16,216 C16,255.701 48.299,288 88,288 L312,288 C351.701,288 384,255.701 384,216 C384,179.9 357.032,149.211 321.271,144.616 L311.371,143.344 L314.768,133.958 C318.239,124.369 320,114.29 320,104 C320,55.477 280.523,16 232,16 C212.691,16 194.367,22.135 179.009,33.741 C164.142,44.976 153.024,60.936 147.702,78.683 L145.057,87.501 L136.694,83.652 C131.429,81.229 125.812,80 120,80 L120,80 Z" id="Shape" sketch:type="MSShapeGroup"></path>
        </g>
    </g>
</svg>